<svg viewBox="0 0 28 13" fill="none" xmlns="http://www.w3.org/2000/svg">
    <path
        d="M11.3975 5.16432V6.72764C11.3975 6.98279 11.379 7.23793 11.338 7.48908L11.3371 7.49396C10.8147 10.6971 7.87087 12.8573 4.76224 12.3191C3.23942 12.055 1.95947 11.1931 1.11135 10.005C0.228284 8.76836 -0.186717 7.17837 0.0798844 5.54437C0.101023 5.41635 0.125612 5.28923 0.154516 5.16388C0.758468 2.52841 3.04788 0.638384 5.70829 0.637939H9.18619V2.94891H8.24058L5.70829 2.94936C3.79505 2.95025 2.24462 4.54868 2.24505 6.51961C2.24505 8.49054 3.79678 10.0881 5.71001 10.0876C7.26606 10.0872 8.63099 9.01772 9.04728 7.47263H6.10258V5.16343L11.398 5.16432H11.3975Z"
        fill="white" />

    <path
        d="M25.3975 5.16432V6.72764C25.3975 6.98279 25.379 7.23793 25.338 7.48908L25.3371 7.49396C24.8147 10.6971 21.8709 12.8573 18.7622 12.3191C17.2394 12.055 15.9595 11.1931 15.1113 10.005C14.2283 8.76836 13.8133 7.17837 14.0799 5.54437C14.101 5.41635 14.1256 5.28923 14.1545 5.16388C14.7585 2.52841 17.0479 0.638384 19.7083 0.637939H23.1862V2.94891H22.2406L19.7083 2.94936C17.795 2.95025 16.2446 4.54868 16.2451 6.51961C16.2451 8.49054 17.7968 10.0881 19.71 10.0876C21.2661 10.0872 22.631 9.01772 23.0473 7.47263H20.1026V5.16343L25.398 5.16432H25.3975Z"
        fill="white" />
</svg>