<svg width="21" height="24" viewBox="0 0 21 24" fill="none" xmlns="http://www.w3.org/2000/svg">
<g clip-path="url(#clip0_4359_22091)">
<path d="M7.87174 11H6.23261V13H7.87174V11ZM11.15 11H9.51087V13H11.15V11ZM14.4283 11H12.7891V13H14.4283V11ZM16.0674 4H15.2478V2H13.6087V4H7.05217V2H5.41304V4H4.59348C3.68376 4 2.96254 4.9 2.96254 6L2.95435 20C2.95435 21.1 3.68376 22 4.59348 22H16.0674C16.9689 22 17.7065 21.1 17.7065 20V6C17.7065 4.9 16.9689 4 16.0674 4ZM16.0674 20H4.59348V9H16.0674V20Z" fill="#B8BCCA"/>
</g>
<defs>
<clipPath id="clip0_4359_22091">
<rect width="19.6696" height="24" fill="white" transform="translate(0.495605)"/>
</clipPath>
</defs>
</svg>
