<svg width="23" height="24" viewBox="0 0 23 24" fill="none" xmlns="http://www.w3.org/2000/svg">
<path d="M1.21973 2.21934C1.09271 2.34633 1.01549 2.51468 1.00209 2.69379C0.988694 2.8729 1.04002 3.05087 1.14673 3.19534L1.21973 3.27934L5.25373 7.31434C3.28767 8.69386 1.88378 10.7349 1.29873 13.0643C1.25371 13.2561 1.28597 13.458 1.38854 13.6262C1.4911 13.7944 1.65574 13.9155 1.84687 13.9633C2.038 14.0111 2.24026 13.9818 2.40995 13.8817C2.57965 13.7816 2.70313 13.6187 2.75373 13.4283C3.27354 11.3608 4.55133 9.56401 6.33373 8.39434L8.14373 10.2043C7.42073 10.9598 7.02232 11.9684 7.03386 13.0141C7.04539 14.0597 7.46594 15.0593 8.20544 15.7986C8.94493 16.538 9.94456 16.9584 10.9902 16.9697C12.0359 16.9811 13.0444 16.5825 13.7997 15.8593L19.7187 21.7793C19.8526 21.9135 20.0322 21.9921 20.2216 21.9992C20.411 22.0063 20.596 21.9415 20.7396 21.8177C20.8831 21.694 20.9744 21.5205 20.9953 21.3321C21.0161 21.1437 20.9648 20.9544 20.8517 20.8023L20.7787 20.7183L14.6657 14.6043L14.6667 14.6023L13.4667 13.4043L10.5967 10.5343H10.5987L7.71873 7.65734L7.71973 7.65534L6.58673 6.52534L2.27973 2.21934C2.13911 2.07889 1.94848 2 1.74973 2C1.55098 2 1.36036 2.07889 1.21973 2.21934ZM9.20373 11.2643L12.7387 14.8003C12.2672 15.2557 11.6357 15.5077 10.9802 15.502C10.3247 15.4963 9.69771 15.2334 9.23419 14.7699C8.77067 14.3064 8.50774 13.6793 8.50205 13.0238C8.49635 12.3684 8.74834 11.7358 9.20373 11.2643ZM10.9997 5.49934C9.99973 5.49934 9.02973 5.64734 8.11073 5.92434L9.34773 7.16034C11.4873 6.7367 13.7078 7.15142 15.5502 8.31877C17.3926 9.48611 18.716 11.3168 19.2467 13.4323C19.2985 13.6213 19.4222 13.7824 19.5913 13.8814C19.7604 13.9803 19.9615 14.0091 20.1516 13.9617C20.3417 13.9143 20.5056 13.7944 20.6084 13.6276C20.7113 13.4608 20.7447 13.2605 20.7017 13.0693C20.1599 10.9065 18.9109 8.98685 17.153 7.61528C15.3952 6.24371 13.2294 5.49895 10.9997 5.49934ZM11.1947 9.00934L14.9957 12.8093C14.9466 11.8172 14.5303 10.8789 13.8278 10.1766C13.1253 9.47427 12.1868 9.05825 11.1947 9.00934Z" fill="#697386" fill-opacity="0.4"/>
</svg>
