<svg  viewBox="0 0 16 16" fill="none" xmlns="http://www.w3.org/2000/svg">
<path fill-rule="evenodd" clip-rule="evenodd" d="M3.99944 2.60002C3.68305 2.60002 3.38713 2.8576 3.38713 3.27295V4.6671C3.38713 4.73436 3.41502 4.87492 3.49375 5.05055C3.57016 5.221 3.66893 5.36713 3.75694 5.45514L3.76767 5.46616L6.07106 7.89077C6.08277 7.9031 6.09395 7.91593 6.10458 7.92921C6.26871 8.13437 6.41764 8.39997 6.52653 8.67219C6.63412 8.94118 6.72098 9.26231 6.72098 9.57695V12.7896C6.72098 13.253 7.26315 13.5646 7.68136 13.3116L8.52422 12.7698L8.53997 12.76C8.56433 12.7454 8.63483 12.6813 8.70276 12.5506C8.76878 12.4237 8.79421 12.3065 8.79421 12.244V9.63756C8.79421 9.30282 8.87598 8.95047 9.00855 8.63796C9.13884 8.33085 9.33726 8.01764 9.60886 7.78867L12.1936 5.50451C12.2815 5.41274 12.39 5.25496 12.4773 5.06286C12.5691 4.86104 12.613 4.67512 12.613 4.54587V3.21233C12.613 2.87693 12.3361 2.60002 12.0007 2.60002H3.99944ZM2.18713 3.27295C2.18713 2.23353 2.98229 1.40002 3.99944 1.40002H12.0007C12.9988 1.40002 13.813 2.21419 13.813 3.21233V4.54587C13.813 4.90155 13.7053 5.26116 13.5698 5.55942C13.4335 5.85929 13.2444 6.15098 13.0311 6.36429C13.0224 6.37301 13.0134 6.38146 13.0041 6.38962L10.3977 8.69301L10.3845 8.70434C10.2962 8.77793 10.1939 8.91644 10.1133 9.10662C10.0337 9.2942 9.99421 9.48738 9.99421 9.63756V12.244C9.99421 12.5452 9.89841 12.8524 9.76742 13.1043C9.63979 13.3497 9.44056 13.6158 9.16659 13.7834L8.31458 14.3311C7.15735 15.0433 5.52098 14.2642 5.52098 12.7896V9.57695C5.52098 9.46727 5.4866 9.30348 5.41235 9.11786C5.34363 8.94606 5.25666 8.79527 5.18133 8.69651L2.90247 6.29771C2.69014 6.08348 2.51822 5.80795 2.39874 5.54142C2.28047 5.27759 2.18713 4.96354 2.18713 4.6671V3.27295Z" fill="#0B9F57"/>
</svg>
