<svg viewBox="0 0 24 24" fill="none" xmlns="http://www.w3.org/2000/svg">
<path fill-rule="evenodd" clip-rule="evenodd" d="M23.04 12.0927C23.04 11.2772 22.9668 10.4931 22.8309 9.74042H12V14.1888H18.1891C17.9225 15.6263 17.1123 16.8443 15.8943 17.6597V20.5452H19.6109C21.7855 18.5431 23.04 15.595 23.04 12.0927Z" fill="#4285F4"/>
<path fill-rule="evenodd" clip-rule="evenodd" d="M11.9995 23.3328C15.1045 23.3328 17.7077 22.303 19.6104 20.5466L15.8938 17.6612C14.864 18.3512 13.5467 18.7589 11.9995 18.7589C9.00425 18.7589 6.46902 16.7359 5.5647 14.0178H1.72266V16.9973C3.61493 20.7557 7.50402 23.3328 11.9995 23.3328Z" fill="#34A853"/>
<path fill-rule="evenodd" clip-rule="evenodd" d="M5.56523 14.0177C5.33523 13.3277 5.20455 12.5907 5.20455 11.8327C5.20455 11.0747 5.33523 10.3377 5.56523 9.6477V6.66815H1.72318C0.944318 8.22065 0.5 9.97702 0.5 11.8327C0.5 13.6884 0.944318 15.4447 1.72318 16.9972L5.56523 14.0177Z" fill="#FBBC05"/>
<path fill-rule="evenodd" clip-rule="evenodd" d="M11.9995 4.90608C13.6879 4.90608 15.2038 5.4863 16.3956 6.62585L19.694 3.32744C17.7024 1.47176 15.0992 0.332214 11.9995 0.332214C7.50402 0.332214 3.61493 2.90926 1.72266 6.66767L5.5647 9.64721C6.46902 6.92903 9.00425 4.90608 11.9995 4.90608Z" fill="#EA4335"/>
</svg>
