<svg viewBox="0 0 25 24" fill="none" xmlns="http://www.w3.org/2000/svg">
<ellipse cx="12.5" cy="12" rx="12.5" ry="12" fill="#444B55"/>
<path fill-rule="evenodd" clip-rule="evenodd" d="M11.9493 7.52851C12.2205 7.78886 12.2205 8.21097 11.9493 8.47132L8.27371 11.9999L11.9493 15.5285C12.2205 15.7889 12.2205 16.211 11.9493 16.4713C11.6781 16.7317 11.2384 16.7317 10.9672 16.4713L6.80057 12.4713C6.52937 12.211 6.52937 11.7889 6.80057 11.5285L10.9672 7.52851C11.2384 7.26816 11.6781 7.26816 11.9493 7.52851Z" fill="#D5D5D6"/>
<path fill-rule="evenodd" clip-rule="evenodd" d="M18.1992 7.52851C18.4704 7.78886 18.4704 8.21097 18.1992 8.47132L14.5236 11.9999L18.1992 15.5285C18.4704 15.7889 18.4704 16.211 18.1992 16.4713C17.928 16.7317 17.4883 16.7317 17.2171 16.4713L13.0504 12.4713C12.7792 12.211 12.7792 11.7889 13.0504 11.5285L17.2171 7.52851C17.4883 7.26816 17.928 7.26816 18.1992 7.52851Z" fill="#D5D5D6"/>
</svg>
