<svg  viewBox="0 0 20 21" fill="none" xmlns="http://www.w3.org/2000/svg">
<path d="M17.96 10.0404C18.2135 10.2942 18.2134 10.7055 17.96 10.9594L15.46 13.4594L15.3574 13.5433C15.1052 13.7097 14.7621 13.6814 14.54 13.4594C14.2866 13.2055 14.2865 12.7942 14.54 12.5404L15.9307 11.1498H7.5C7.14112 11.1498 6.84979 10.8592 6.84961 10.5004C6.84961 10.1414 7.14102 9.84998 7.5 9.84998H15.9307L14.54 8.45935L15 8.00037L15.46 7.54041L17.96 10.0404ZM14.54 7.54041C14.7939 7.28656 15.2061 7.28656 15.46 7.54041L14.54 8.45935C14.2866 8.20554 14.2865 7.79415 14.54 7.54041ZM11.0166 7.16638V5.50037C11.0166 5.23081 10.9093 4.97226 10.7188 4.78162C10.5281 4.59095 10.2696 4.48376 10 4.48376H4.16699C3.89736 4.48376 3.6389 4.59095 3.44824 4.78162C3.25758 4.97228 3.15039 5.23073 3.15039 5.50037V15.5004C3.15048 15.7699 3.25766 16.0285 3.44824 16.2191C3.63887 16.4096 3.89751 16.517 4.16699 16.517H10C10.2696 16.517 10.5281 16.4097 10.7188 16.2191C10.9093 16.0285 11.0165 15.7699 11.0166 15.5004V13.8334C11.0166 13.4744 11.308 13.183 11.667 13.183C12.0258 13.1832 12.3164 13.4745 12.3164 13.8334V15.5004C12.3163 16.1147 12.0721 16.7037 11.6377 17.1381C11.2033 17.5724 10.6143 17.8168 10 17.8168H4.16699C3.55257 17.8168 2.96278 17.5725 2.52832 17.1381C2.09404 16.7037 1.8497 16.1146 1.84961 15.5004V5.50037C1.84961 4.88595 2.09386 4.29615 2.52832 3.86169C2.96278 3.42724 3.55257 3.18298 4.16699 3.18298H10C10.6143 3.18298 11.2033 3.42744 11.6377 3.86169C12.0722 4.29615 12.3164 4.88595 12.3164 5.50037V7.16638C12.3164 7.52526 12.0258 7.8166 11.667 7.81677C11.308 7.81677 11.0166 7.52537 11.0166 7.16638Z" fill="#989FAB"/>
</svg>
