<svg  viewBox="0 0 21 20" fill="none" xmlns="http://www.w3.org/2000/svg">
<path fill-rule="evenodd" clip-rule="evenodd" d="M10.1817 2.94006C6.39001 2.94006 3.31624 6.01384 3.31624 9.80553C3.31624 13.5972 6.39001 16.671 10.1817 16.671C13.9734 16.671 17.0472 13.5972 17.0472 9.80553C17.0472 6.01384 13.9734 2.94006 10.1817 2.94006ZM2.06624 9.80553C2.06624 5.32348 5.69966 1.69006 10.1817 1.69006C14.6638 1.69006 18.2972 5.32348 18.2972 9.80553C18.2972 14.2876 14.6638 17.921 10.1817 17.921C5.69966 17.921 2.06624 14.2876 2.06624 9.80553Z" fill="#21252B"/>
<path fill-rule="evenodd" clip-rule="evenodd" d="M14.949 14.9629C15.1927 14.7185 15.5884 14.718 15.8328 14.9618L18.7695 17.8909C19.0139 18.1346 19.0144 18.5303 18.7707 18.7747C18.5269 19.0191 18.1312 19.0196 17.8868 18.7759L14.9501 15.8468C14.7057 15.6031 14.7052 15.2073 14.949 14.9629Z" fill="#21252B"/>
</svg>
