<svg viewBox="0 0 16 16" fill="none" xmlns="http://www.w3.org/2000/svg">
<path d="M4.7123 3.19141C4.96699 2.93672 5.38046 2.93672 5.63515 3.19141L7.80898 5.36523C8.06336 5.61989 8.06341 6.03249 7.80898 6.28711C7.55429 6.5418 7.14081 6.5418 6.88613 6.28711L5.82558 5.22656V12.3477C5.82558 12.7078 5.53342 13 5.17323 13C4.81327 12.9997 4.52187 12.7077 4.52187 12.3477V5.22656L3.46132 6.28711C3.20663 6.5418 2.79316 6.5418 2.53847 6.28711C2.28402 6.03249 2.28408 5.61989 2.53847 5.36523L4.7123 3.19141ZM10.8266 3C11.1865 3.00026 11.4779 3.29232 11.4779 3.65234V10.7734L12.5385 9.71289C12.7932 9.4582 13.2066 9.4582 13.4613 9.71289C13.7158 9.96752 13.7157 10.3801 13.4613 10.6348L11.2875 12.8086C11.0328 13.0633 10.6193 13.0633 10.3646 12.8086L8.19081 10.6348C7.93642 10.3801 7.93638 9.96752 8.19081 9.71289C8.4455 9.4582 8.85898 9.4582 9.11366 9.71289L10.1742 10.7734V3.65234C10.1742 3.29216 10.4664 3 10.8266 3Z" fill="#6A7383"/>
</svg>
